<svg width="160" height="48" viewBox="0 0 160 48" fill="none" xmlns="http://www.w3.org/2000/svg"><path d="M136.97 0H137.493C138.116 0.395341 138.352 1.1389 138.695 1.75468C143.418 10.6079 148.15 19.4572 152.879 28.3072C155.164 32.6192 157.496 36.9081 159.759 41.2313V41.3159C159.624 41.5595 159.517 41.9421 159.17 41.9086C156.872 41.9157 154.571 41.9205 152.275 41.9062C151.724 41.9285 151.575 41.3263 151.367 40.939C150.949 40.1451 150.499 39.3712 150.122 38.5565C149.477 37.4624 148.969 36.2963 148.324 35.2029C147.829 34.1215 147.188 33.1176 146.69 32.0386C146.381 31.3853 145.976 30.7831 145.671 30.129C145.219 29.157 144.632 28.2569 144.192 27.2785C143.529 26.1292 142.98 24.9193 142.316 23.77C141.851 22.7397 141.23 21.7901 140.76 20.7622C140.431 20.0554 139.99 19.4053 139.664 18.696C139.238 17.776 138.671 16.9294 138.265 15.9997C138.062 15.6403 137.924 15.1404 137.498 14.9966C137.224 14.9742 136.84 14.9056 136.686 15.1995C135.969 16.3503 135.445 17.6059 134.754 18.7719C134.26 19.8525 133.615 20.8556 133.12 21.9354C132.825 22.5632 132.437 23.1414 132.14 23.7668C131.914 24.2364 131.684 24.7044 131.418 25.1533C130.946 25.9496 130.608 26.8169 130.131 27.6092C129.714 28.3048 129.418 29.0644 129.002 29.76C128.566 30.4772 128.262 31.2639 127.832 31.9843C127.341 32.8037 126.995 33.699 126.502 34.5177C126.086 35.2133 125.792 35.972 125.375 36.6669C124.938 37.3841 124.634 38.1708 124.205 38.8912C123.742 39.6627 123.403 40.4981 122.968 41.2832C122.819 41.5164 122.676 41.8087 122.384 41.8766C121.934 41.9565 121.474 41.9094 121.02 41.9149C119.264 41.9133 117.507 41.9078 115.75 41.9205C115.432 41.9149 115.05 41.9189 114.832 41.6458C114.765 41.3471 114.789 41.0244 114.951 40.7609C122.117 27.3273 129.299 13.9016 136.471 0.470416C136.581 0.264359 136.778 0.128586 136.969 0.000798669L136.97 0ZM0 6.45165C0.491177 5.93331 1.23714 6.10263 1.87208 6.08506C8.27022 6.08825 14.6675 6.08506 21.0657 6.08666C22.9473 6.02356 24.853 6.30789 26.6188 6.96679C29.5915 8.03301 32.1496 10.4282 33.112 13.4751C33.5377 14.6308 33.6303 15.8743 33.7158 17.0915C33.6375 18.3957 33.4794 19.7207 32.9866 20.9419C32.3956 22.3715 31.5426 23.7484 30.2703 24.6669C29.9636 24.9632 29.4884 25.0886 29.2648 25.4608C30.9572 26.0717 32.4132 27.2298 33.5105 28.6427C35.3155 31.0027 35.8171 34.1263 35.5104 37.0239C35.3491 38.9343 34.7996 40.8312 33.8028 42.4764C33.1367 43.4995 32.3157 44.4371 31.3182 45.1488C29.141 46.7645 26.4471 47.5088 23.7867 47.8155C23.2412 47.8898 22.6822 47.8498 22.1471 47.9992H0.487987C0.307487 47.8538 0.140566 47.6925 0 47.5072V6.45165ZM7.18163 12.4544C6.97718 12.7052 7.03308 13.0471 7.0211 13.3466C7.03947 16.4574 6.99315 19.569 7.04426 22.6782C7.23515 22.9162 7.52746 23.0791 7.83734 23.0624C11.9736 23.0656 16.1107 23.0576 20.2462 23.0672C20.8221 23.0919 21.3883 22.9713 21.9562 22.8914C23.2436 22.7038 24.5295 22.195 25.4272 21.223C26.0414 20.612 26.3209 19.7639 26.5286 18.9444C26.5789 18.2807 26.7905 17.6146 26.606 16.9517C26.5174 15.8304 26.0613 14.7402 25.3018 13.908C24.238 12.9432 22.814 12.4824 21.4091 12.3123C20.9594 12.2676 20.5034 12.3346 20.0569 12.246C19.5027 12.1262 18.9348 12.1837 18.3726 12.1773C14.9774 12.1733 11.5823 12.1805 8.18876 12.1725C7.83495 12.1725 7.48193 12.2699 7.18004 12.4544M7.41165 29.3056C7.27348 29.3487 7.1417 29.4309 7.09937 29.5795C6.85019 30.0619 6.9013 30.617 6.9037 31.1409C6.90849 34.342 6.9005 37.543 6.90689 40.7433C6.91408 41.2009 7.16886 41.8494 7.72074 41.7935C12.091 41.7959 16.4621 41.7911 20.8317 41.7951C21.2709 41.8103 21.7094 41.7951 22.1423 41.7153C23.6797 41.5843 25.2715 41.276 26.5677 40.3903C27.6092 39.6523 28.1818 38.4327 28.4038 37.2044C28.6985 35.7868 28.5883 34.3028 28.177 32.9195C27.808 31.8517 27.0804 30.8789 26.0597 30.3614C24.7116 29.6186 23.1646 29.3966 21.6535 29.268C17.0484 29.2696 12.4432 29.2696 7.83734 29.268C7.69438 29.2648 7.55142 29.2776 7.41165 29.3056ZM42.6465 6.1194C43.1337 6.03953 43.6305 6.09624 44.1224 6.08666C50.9103 6.08506 57.6998 6.08985 64.4893 6.08426C67.5578 6.2416 70.6758 7.31501 72.8921 9.50416C74.5773 11.1702 75.5932 13.4568 75.8368 15.8017C75.832 16.7297 75.8751 17.661 75.8112 18.5882C75.5197 20.5785 74.7378 22.5824 73.2395 23.976C72.8162 24.4201 72.3562 24.8322 71.8179 25.1317C71.7069 25.2252 71.4713 25.2723 71.5407 25.4624C73.2635 26.1644 74.8193 27.3392 75.8895 28.8687C76.3495 29.4996 76.6802 30.2112 76.9989 30.9221C77.6322 32.3517 77.7504 33.933 77.843 35.4737C77.7648 36.6653 77.6929 37.8673 77.4086 39.0333C76.9941 41.066 75.9374 42.9492 74.4615 44.3988C73.8585 44.8964 73.2499 45.3955 72.5734 45.7909C70.6654 46.9593 68.4459 47.4992 66.2472 47.7892C65.6338 47.8938 65.002 47.8371 64.3966 48H42.7503C42.4133 47.8035 42.0866 47.4928 42.1298 47.0656C42.1322 33.7182 42.1322 20.3692 42.1298 7.0219C42.1154 6.65291 42.3366 6.30629 42.6465 6.1194ZM49.8992 12.2164C49.6748 12.2692 49.4296 12.3514 49.309 12.5655C49.0997 12.8618 49.1588 13.2411 49.1509 13.5814C49.1612 16.431 49.1541 19.2807 49.1533 22.1287C49.1333 22.5001 49.3809 22.8212 49.6636 23.0328C50.5054 23.1071 51.3536 23.0416 52.1986 23.0624C55.7894 23.06 59.3786 23.0672 62.9694 23.06C64.1738 22.9242 65.4205 22.7669 66.4772 22.1255C67.5658 21.6359 68.2534 20.5769 68.6232 19.4795C68.9019 18.5922 68.8061 17.6546 68.8109 16.7401C68.731 16.0916 68.5242 15.4534 68.2295 14.8704C67.3853 13.4224 65.76 12.6238 64.1475 12.3882C63.5133 12.2292 62.8544 12.3602 62.2179 12.2292C61.7307 12.1342 61.2347 12.1813 60.7443 12.1765C57.2709 12.1725 53.7975 12.1797 50.3241 12.1717C50.1803 12.1725 50.039 12.1869 49.8992 12.2164ZM49.6636 29.308C49.3154 29.3838 49.1381 29.752 49.1572 30.0843C49.1549 33.4419 49.1596 36.7987 49.1549 40.1547C49.1596 40.582 49.1125 41.0284 49.2786 41.4341C49.3617 41.7209 49.7131 41.7864 49.9727 41.7919C54.4197 41.7983 58.8683 41.7872 63.3169 41.7983C63.9047 41.8279 64.4789 41.6761 65.0643 41.6498C66.5634 41.4621 68.1025 41.0308 69.2589 40.0117C70.171 39.0924 70.6167 37.8058 70.7149 36.5351C70.8315 35.905 70.8587 35.2604 70.7293 34.6303C70.6159 33.2047 70.1175 31.6824 68.9347 30.7919C67.5051 29.6873 65.6506 29.4325 63.9047 29.2688C59.4569 29.2704 55.0083 29.2704 50.5613 29.2688C50.2618 29.276 49.9575 29.2433 49.6636 29.308ZM78.1002 6.97557C77.8886 6.54669 78.3079 6.03155 78.7631 6.08426C80.9491 6.08266 83.1366 6.09464 85.3242 6.07947C85.5781 6.06669 85.8593 6.10263 85.9951 6.35101C86.5134 7.14729 86.9327 8.00506 87.3496 8.85884C87.6132 9.40433 87.9494 9.90988 88.2138 10.4562C88.6993 11.5088 89.3279 12.4856 89.8087 13.5406C90.4524 14.6348 90.9612 15.8009 91.6049 16.895C92.1568 18.0771 92.8516 19.1848 93.3963 20.3708C93.8707 21.1999 94.3012 22.0512 94.7309 22.9042C95.2764 23.7884 95.6581 24.7579 96.1964 25.6461C96.5718 26.2994 96.8506 27.003 97.2395 27.6491C97.7323 28.4678 98.0773 29.3647 98.5701 30.1817C99.0581 31.0011 99.3892 31.9052 99.9152 32.7023C100.15 33.1448 100.92 33.1464 101.157 32.7023C101.68 31.9036 102.012 31.0011 102.5 30.1817C102.935 29.4653 103.242 28.6794 103.67 27.9582C104.162 27.1388 104.508 26.2435 105.001 25.424C105.488 24.5726 105.867 23.663 106.38 22.826C106.979 21.5696 107.703 20.3796 108.294 19.1193C108.778 18.2959 109.187 17.4333 109.629 16.5884C110.147 15.7537 110.504 14.8345 111.012 13.9951C111.449 13.2435 111.77 12.4321 112.214 11.6837C112.663 10.9418 112.977 10.1279 113.427 9.38596C114.028 8.37324 114.417 7.23275 115.129 6.28632C115.29 6.03714 115.607 6.09304 115.862 6.07867C118.009 6.09864 120.158 6.08266 122.306 6.08426C122.597 6.05151 122.843 6.24639 122.981 6.48839C123.118 6.89171 122.825 7.2599 122.639 7.59215C115.811 20.3557 109.001 33.1288 102.175 45.8939C101.785 46.6231 101.454 47.4154 100.849 48H100.334C99.5582 47.5144 99.2972 46.5672 98.8536 45.8156C91.9332 32.8708 85.0271 19.9148 78.1002 6.97557Z" fill="#9999AD"/></svg>

