<svg width="160" height="160" viewBox="0 0 160 160" fill="none" xmlns="http://www.w3.org/2000/svg">
<path d="M115.735 65H116.063C116.453 65.2471 116.6 65.7118 116.815 66.0967C119.771 71.6299 122.733 77.1607 125.694 82.692C127.124 85.387 128.583 88.0676 130 90.7696V90.8224C129.915 90.9747 129.849 91.2138 129.631 91.1929C128.193 91.1973 126.753 91.2003 125.315 91.1914C124.971 91.2053 124.877 90.8289 124.747 90.5869C124.485 90.0907 124.204 89.607 123.968 89.0978C123.564 88.414 123.246 87.6852 122.842 87.0018C122.533 86.3259 122.131 85.6985 121.82 85.0241C121.626 84.6158 121.373 84.2394 121.182 83.8306C120.899 83.2231 120.531 82.6606 120.256 82.0491C119.841 81.3307 119.497 80.5746 119.082 79.8563C118.791 79.2123 118.402 78.6188 118.108 77.9764C117.902 77.5346 117.626 77.1283 117.422 76.685C117.155 76.11 116.8 75.5809 116.546 74.9998C116.419 74.7752 116.333 74.4628 116.066 74.3729C115.894 74.3589 115.654 74.316 115.558 74.4997C115.109 75.2189 114.781 76.0037 114.348 76.7324C114.039 77.4078 113.635 78.0347 113.326 78.7096C113.141 79.102 112.898 79.4634 112.712 79.8542C112.571 80.1477 112.427 80.4402 112.26 80.7208C111.965 81.2185 111.753 81.7606 111.455 82.2557C111.194 82.6905 111.008 83.1653 110.748 83.6C110.475 84.0483 110.285 84.5399 110.016 84.9902C109.708 85.5023 109.492 86.0619 109.183 86.5736C108.923 87.0083 108.739 87.4825 108.478 87.9168C108.204 88.3651 108.014 88.8568 107.745 89.307C107.455 89.7892 107.243 90.3113 106.971 90.802C106.878 90.9477 106.788 91.1304 106.605 91.1729C106.324 91.2228 106.036 91.1934 105.752 91.1968C104.652 91.1958 103.553 91.1924 102.453 91.2003C102.254 91.1968 102.015 91.1993 101.878 91.0286C101.836 90.8419 101.851 90.6402 101.953 90.4756C106.438 82.0796 110.934 73.6885 115.423 65.294C115.492 65.1652 115.615 65.0804 115.735 65.0005L115.735 65ZM30 69.0323C30.3074 68.7083 30.7744 68.8141 31.1718 68.8032C35.1767 68.8052 39.181 68.8032 43.1859 68.8042C44.3637 68.7647 45.5566 68.9424 46.6618 69.3542C48.5226 70.0206 50.1238 71.5176 50.7262 73.4219C50.9927 74.1442 51.0506 74.9214 51.1042 75.6822C51.0552 76.4973 50.9562 77.3254 50.6477 78.0887C50.2778 78.9822 49.7439 79.8428 48.9475 80.4168C48.7555 80.602 48.4581 80.6804 48.3181 80.913C49.3774 81.2948 50.2888 82.0186 50.9757 82.9017C52.1055 84.3767 52.4195 86.3289 52.2275 88.1399C52.1265 89.3339 51.7826 90.5195 51.1586 91.5477C50.7417 92.1872 50.2278 92.7732 49.6034 93.218C48.2406 94.2278 46.5544 94.693 44.8891 94.8847C44.5477 94.9311 44.1978 94.9061 43.8628 94.9995H30.3055C30.1925 94.9086 30.088 94.8078 30 94.692V69.0323ZM34.4953 72.784C34.3673 72.9408 34.4023 73.1544 34.3948 73.3416C34.4063 75.2859 34.3773 77.2306 34.4093 79.1739C34.5288 79.3226 34.7118 79.4244 34.9057 79.414C37.4948 79.416 40.0844 79.411 42.673 79.417C43.0334 79.4324 43.3879 79.3571 43.7433 79.3071C44.5492 79.1899 45.3541 78.8719 45.916 78.2644C46.3004 77.8825 46.4754 77.3524 46.6054 76.8403C46.6369 76.4254 46.7693 76.0091 46.6538 75.5948C46.5984 74.894 46.3129 74.2126 45.8375 73.6925C45.1716 73.0895 44.2803 72.8015 43.4009 72.6952C43.1194 72.6672 42.834 72.7091 42.5545 72.6538C42.2076 72.5789 41.8521 72.6148 41.5002 72.6108C39.375 72.6083 37.2499 72.6128 35.1257 72.6078C34.9042 72.6078 34.6833 72.6687 34.4943 72.784M34.6393 83.316C34.5528 83.3429 34.4703 83.3943 34.4438 83.4872C34.2878 83.7887 34.3198 84.1356 34.3213 84.4631C34.3243 86.4637 34.3193 88.4644 34.3233 90.4646C34.3278 90.7506 34.4873 91.1559 34.8327 91.1209C37.5683 91.1224 40.3043 91.1194 43.0395 91.1219C43.3144 91.1314 43.5888 91.1219 43.8598 91.0721C44.8221 90.9902 45.8185 90.7975 46.6299 90.2439C47.2818 89.7827 47.6402 89.0204 47.7792 88.2527C47.9636 87.3667 47.8946 86.4392 47.6372 85.5747C47.4062 84.9073 46.9508 84.2993 46.3119 83.9759C45.468 83.5116 44.4997 83.3729 43.5539 83.2925C40.6713 83.2935 37.7887 83.2935 34.9057 83.2925C34.8162 83.2905 34.7268 83.2985 34.6393 83.316ZM56.6943 68.8246C56.9992 68.7747 57.3102 68.8101 57.6181 68.8042C61.8669 68.8032 66.1168 68.8062 70.3666 68.8027C72.2873 68.901 74.239 69.5719 75.6263 70.9401C76.6811 71.9814 77.317 73.4105 77.4695 74.8761C77.4665 75.4561 77.4935 76.0381 77.4535 76.6176C77.271 77.8616 76.7816 79.114 75.8437 79.985C75.5788 80.2626 75.2908 80.5201 74.9539 80.7073C74.8844 80.7658 74.7369 80.7952 74.7804 80.914C75.8588 81.3528 76.8326 82.087 77.5025 83.0429C77.7904 83.4373 77.9974 83.882 78.1969 84.3263C78.5933 85.2198 78.6673 86.2081 78.7253 87.1711C78.6763 87.9158 78.6313 88.6671 78.4534 89.3958C78.1939 90.6662 77.5325 91.8432 76.6086 92.7492C76.2312 93.0602 75.8503 93.3722 75.4268 93.6193C74.2325 94.3496 72.8432 94.687 71.467 94.8682C71.083 94.9336 70.6875 94.8982 70.3086 95H56.7592C56.5483 94.8772 56.3438 94.683 56.3708 94.416C56.3723 86.0739 56.3723 77.7307 56.3708 69.3887C56.3618 69.1581 56.5003 68.9414 56.6943 68.8246ZM61.234 72.6353C61.0936 72.6683 60.9401 72.7196 60.8646 72.8534C60.7336 73.0386 60.7706 73.2757 60.7657 73.4884C60.7721 75.2694 60.7677 77.0504 60.7672 78.8304C60.7546 79.0626 60.9096 79.2633 61.0866 79.3955C61.6135 79.4419 62.1444 79.401 62.6733 79.414C64.921 79.4125 67.1676 79.417 69.4152 79.4125C70.1691 79.3276 70.9495 79.2293 71.6109 78.8284C72.2923 78.5224 72.7227 77.8606 72.9542 77.1747C73.1286 76.6201 73.0687 76.0341 73.0717 75.4626C73.0217 75.0573 72.8922 74.6584 72.7078 74.294C72.1793 73.389 71.162 72.8899 70.1527 72.7426C69.7557 72.6432 69.3433 72.7251 68.9448 72.6433C68.6399 72.5839 68.3294 72.6133 68.0225 72.6103C65.8483 72.6078 63.6742 72.6123 61.5 72.6073C61.41 72.6078 61.3216 72.6168 61.234 72.6353ZM61.0866 83.3175C60.8686 83.3649 60.7576 83.595 60.7696 83.8027C60.7682 85.9012 60.7711 87.9992 60.7682 90.0967C60.7711 90.3638 60.7416 90.6428 60.8456 90.8963C60.8976 91.0756 61.1176 91.1165 61.2801 91.1199C64.0636 91.1239 66.8482 91.117 69.6328 91.1239C70.0007 91.1424 70.3601 91.0476 70.7265 91.0311C71.6649 90.9138 72.6283 90.6442 73.3521 90.0073C73.923 89.4327 74.202 88.6286 74.2635 87.8344C74.3365 87.4406 74.3535 87.0377 74.2725 86.6439C74.2015 85.7529 73.8895 84.8015 73.1492 84.2449C72.2543 83.5546 71.0935 83.3953 70.0007 83.293C67.2166 83.294 64.432 83.294 61.6485 83.293C61.461 83.2975 61.2705 83.2771 61.0866 83.3175ZM78.8863 69.3597C78.7538 69.0917 79.0163 68.7697 79.3012 68.8027C80.6695 68.8017 82.0388 68.8092 83.4081 68.7997C83.567 68.7917 83.743 68.8141 83.828 68.9694C84.1524 69.4671 84.4149 70.0032 84.6759 70.5368C84.8409 70.8777 85.0513 71.1937 85.2168 71.5351C85.5207 72.193 85.9142 72.8035 86.2151 73.4629C86.618 74.1467 86.9365 74.8756 87.3394 75.5594C87.6849 76.2982 88.1198 76.9905 88.4607 77.7318C88.7577 78.2499 89.0272 78.782 89.2961 79.3151C89.6376 79.8677 89.8765 80.4737 90.2134 81.0288C90.4484 81.4371 90.6229 81.8769 90.8664 82.2807C91.1748 82.7924 91.3908 83.3529 91.6992 83.8636C92.0047 84.3757 92.212 84.9408 92.5412 85.4389C92.6882 85.7155 93.1701 85.7165 93.3185 85.4389C93.6459 84.9398 93.8537 84.3757 94.1591 83.8636C94.4314 83.4158 94.6236 82.9246 94.8915 82.4739C95.1995 81.9618 95.416 81.4022 95.7246 80.89C96.0295 80.3579 96.2667 79.7894 96.5878 79.2663C96.9627 78.481 97.4159 77.7373 97.7859 76.9496C98.0888 76.4349 98.3448 75.8958 98.6215 75.3677C98.9457 74.8461 99.1692 74.2716 99.4872 73.7469C99.7607 73.2772 99.9616 72.7701 100.24 72.3023C100.521 71.8386 100.717 71.3299 100.999 70.8662C101.375 70.2333 101.618 69.5205 102.064 68.929C102.165 68.7732 102.363 68.8082 102.523 68.7992C103.867 68.8117 105.212 68.8017 106.557 68.8027C106.739 68.7822 106.893 68.904 106.979 69.0552C107.065 69.3073 106.881 69.5374 106.765 69.7451C102.491 77.7223 98.2284 85.7055 93.9557 93.6837C93.7116 94.1394 93.5044 94.6346 93.1257 95H92.8033C92.3177 94.6965 92.1544 94.1045 91.8767 93.6348C87.5449 85.5443 83.2221 77.4468 78.8863 69.3597Z" fill="#9999AD"/>
</svg>
