<svg width="346" height="116" viewBox="0 0 346 116" fill="none" xmlns="http://www.w3.org/2000/svg"><path d="M154.698 33.4354V90.433C154.698 103.245 159.374 108.559 168.279 108.559C183.662 108.559 188.847 88.4324 188.847 78.5201V37.8817H179.483V33.4398H220.64V109.968H230.021V114.414H188.851V97.3076H188.441C185.649 105.742 179.483 116.009 154.703 116.009C138.089 116.009 122.875 109.972 122.875 83.4374V37.8817H113.507V33.4441H154.703L154.698 33.4354ZM238.105 0V4.45921H274.19L247.491 37.8558V109.964H238.11V114.401H288.721V109.964H279.358V0H238.114H238.105ZM295.094 0V4.45921H331.179L304.479 37.8558V109.964H295.099V114.401H345.71V109.964H336.346V0H295.103H295.094ZM70.319 31.8713C49.6606 31.8713 41.2045 46.9643 41.2045 48.1958V0.00432094H0.0259256V4.45489H9.33755V109.994H0V114.397H41.2045V99.9693C41.2045 101.758 50.4945 115.931 70.319 115.931C90.1435 115.931 106.684 97.8953 106.684 73.8838C106.684 49.8723 90.8219 31.8713 70.319 31.8713ZM57.5204 107.129C49.4402 107.129 41.2002 95.6786 41.2002 87.041V60.8518C41.2002 53.1865 49.4661 40.673 57.5204 40.673C69.6536 40.673 74.8733 56.9716 74.8733 74.2122C74.8733 95.7132 69.727 107.129 57.5204 107.129Z" fill="#000033"/></svg>