<svg width="96" height="32" viewBox="0 0 96 32" fill="none" xmlns="http://www.w3.org/2000/svg">
<g clip-path="url(#clip0_368_2463)">
<path d="M42.6754 9.22357V24.947C42.6754 28.4813 43.9651 29.9474 46.4218 29.9474C50.6653 29.9474 52.0957 24.3951 52.0957 21.6607V10.4501H49.5126V9.22476H60.8663V30.336H63.4541V31.5625H52.0968V26.8435H51.9836C51.2136 29.1702 49.5126 32.0024 42.6766 32.0024C38.0934 32.0024 33.8964 30.3372 33.8964 23.0172V10.4501H31.3122V9.22596H42.6766L42.6754 9.22357ZM65.6843 0V1.23013H75.6385L68.2733 10.443V30.3348H65.6855V31.559H79.6472V30.3348H77.0641V0H65.6867H65.6843ZM81.4053 0V1.23013H91.3596L83.9943 10.443V30.3348H81.4065V31.559H95.3682V30.3348H92.7852V0H81.4077H81.4053ZM19.3983 8.79207C13.6995 8.79207 11.3668 12.9557 11.3668 13.2954V0.00119198H0.0071519V1.22894H2.57588V30.3431H0V31.5578H11.3668V27.5777C11.3668 28.0712 13.9295 31.9809 19.3983 31.9809C24.8672 31.9809 29.4301 27.0056 29.4301 20.3817C29.4301 13.7579 25.0543 8.79207 19.3983 8.79207ZM15.8677 29.5529C13.6387 29.5529 11.3656 26.3941 11.3656 24.0113V16.7867C11.3656 14.6721 13.6458 11.2201 15.8677 11.2201C19.2148 11.2201 20.6547 15.7163 20.6547 20.4723C20.6547 26.4036 19.235 29.5529 15.8677 29.5529Z" fill="white"/>
</g>
<defs>
<clipPath id="clip0_368_2463">
<rect width="95.3659" height="32" fill="white"/>
</clipPath>
</defs>
</svg>
