<svg width="153" height="32" viewBox="0 0 153 32" fill="none" xmlns="http://www.w3.org/2000/svg"><path d="M42.6754 9.22357V24.947C42.6754 28.4813 43.9651 29.9474 46.4218 29.9474C50.6653 29.9474 52.0957 24.3951 52.0957 21.6607V10.4501H49.5126V9.22476H60.8663V30.336H63.4541V31.5625H52.0969V26.8435H51.9836C51.2136 29.1702 49.5126 32.0024 42.6766 32.0024C38.0934 32.0024 33.8964 30.3372 33.8964 23.0172V10.4501H31.3122V9.22596H42.6766L42.6754 9.22357ZM65.6843 0V1.23013H75.6385L68.2733 10.443V30.3348H65.6855V31.559H79.6472V30.3348H77.0641V0H65.6867H65.6843ZM81.4054 0V1.23013H91.3596L83.9943 10.443V30.3348H81.4065V31.559H95.3683V30.3348H92.7852V0H81.4077H81.4054ZM19.3983 8.79207C13.6995 8.79207 11.3668 12.9557 11.3668 13.2954V0.00119198H0.0071519V1.22894H2.57588V30.3431H0V31.5578H11.3668V27.5777C11.3668 28.0712 13.9295 31.9809 19.3983 31.9809C24.8672 31.9809 29.4301 27.0056 29.4301 20.3817C29.4301 13.7579 25.0543 8.79207 19.3983 8.79207ZM15.8677 29.5529C13.6387 29.5529 11.3656 26.3941 11.3656 24.0113V16.7867C11.3656 14.6721 13.6458 11.2201 15.8677 11.2201C19.2148 11.2201 20.6547 15.7163 20.6547 20.4723C20.6547 26.4036 19.235 29.5529 15.8677 29.5529ZM109.281 9.19973V10.1342H105.182V13.0665H108.84V14.001H105.182V18.2826H104.209V9.20092H109.282L109.281 9.19973ZM111.448 9.90062C111.448 10.2773 111.124 10.5884 110.76 10.5884C110.397 10.5884 110.086 10.2773 110.086 9.90062C110.086 9.52395 110.384 9.22596 110.76 9.22596C111.137 9.22596 111.448 9.53706 111.448 9.90062ZM111.228 11.9759V18.2815H110.28V11.9759H111.228ZM118.425 14.6495V18.2826H117.477V14.7413C117.477 13.535 116.725 12.7435 115.57 12.7435C114.415 12.7435 113.61 13.535 113.61 14.7413V18.2826H112.663V11.9771H113.61V13.2096C114.012 12.3537 114.779 11.8471 115.764 11.8471C117.399 11.8471 118.424 12.9235 118.424 14.6495H118.425ZM126.09 11.9759V18.2815H125.143V16.8153C124.689 17.8142 123.78 18.4114 122.574 18.4114C120.835 18.4114 119.448 16.9452 119.448 15.1155C119.448 13.2859 120.836 11.8459 122.574 11.8459C123.78 11.8459 124.689 12.43 125.143 13.4289V11.9759H126.09ZM125.143 15.1155C125.143 13.74 124.131 12.728 122.755 12.728C121.38 12.728 120.381 13.7924 120.381 15.1155C120.381 16.4386 121.419 17.5162 122.755 17.5162C124.091 17.5162 125.143 16.5042 125.143 15.1155ZM133.3 14.6495V18.2826H132.352V14.7413C132.352 13.535 131.6 12.7435 130.445 12.7435C129.29 12.7435 128.485 13.535 128.485 14.7413V18.2826H127.538V11.9771H128.485V13.2096C128.887 12.3537 129.653 11.8471 130.639 11.8471C132.273 11.8471 133.298 12.9235 133.298 14.6495H133.3ZM134.322 15.1287C134.322 13.2739 135.749 11.8459 137.579 11.8459C139.006 11.8459 140.264 12.7805 140.498 14.038H139.538C139.331 13.2859 138.513 12.7411 137.579 12.7411C136.269 12.7411 135.257 13.7793 135.257 15.1287C135.257 16.478 136.269 17.5162 137.579 17.5162C138.5 17.5162 139.356 16.9715 139.538 16.1538H140.498C140.304 17.49 139.019 18.4114 137.579 18.4114C135.749 18.4114 134.322 16.9846 134.322 15.1287ZM142.714 9.90062C142.714 10.2773 142.39 10.5884 142.026 10.5884C141.663 10.5884 141.351 10.2773 141.351 9.90062C141.351 9.52395 141.649 9.22596 142.026 9.22596C142.403 9.22596 142.714 9.53706 142.714 9.90062ZM142.493 11.9759V18.2815H141.546V11.9759H142.493ZM150.178 11.9759V18.2815H149.23V16.8153C148.776 17.8142 147.868 18.4114 146.662 18.4114C144.923 18.4114 143.535 16.9452 143.535 15.1155C143.535 13.2859 144.924 11.8459 146.662 11.8459C147.868 11.8459 148.776 12.43 149.23 13.4289V11.9759H150.178ZM149.23 15.1155C149.23 13.74 148.218 12.728 146.843 12.728C145.467 12.728 144.468 13.7924 144.468 15.1155C144.468 16.4386 145.507 17.5162 146.843 17.5162C148.179 17.5162 149.23 16.5042 149.23 15.1155ZM152.574 18.2815H151.626V9.19973H152.574V18.2815ZM109.324 29.2966H105.029L104.147 31.5149H103.109L106.742 22.4331H107.624L111.271 31.5149H110.206L109.324 29.2966ZM108.96 28.3633L107.183 23.8742L105.406 28.3633H108.96ZM118.128 22.4343V31.5161H117.18V30.0499C116.726 31.0488 115.818 31.646 114.612 31.646C112.873 31.646 111.485 30.1798 111.485 28.3501C111.485 26.5204 112.874 25.0805 114.612 25.0805C115.818 25.0805 116.726 25.6646 117.18 26.6635V22.4343H118.128ZM117.18 28.3501C117.18 26.9746 116.168 25.9626 114.793 25.9626C113.417 25.9626 112.418 27.027 112.418 28.3501C112.418 29.6732 113.457 30.7508 114.793 30.7508C116.129 30.7508 117.18 29.7388 117.18 28.3501ZM122.386 31.5161H121.555L118.856 25.2105H119.881L121.97 30.3217L124.033 25.2105H125.071L122.386 31.5161ZM126.969 23.134C126.969 23.5107 126.645 23.8218 126.281 23.8218C125.918 23.8218 125.607 23.5107 125.607 23.134C125.607 22.7574 125.905 22.4594 126.281 22.4594C126.658 22.4594 126.969 22.7705 126.969 23.134ZM126.748 25.2105V31.5161H125.801V25.2105H126.748ZM127.774 29.647H128.682C128.772 30.361 129.409 30.8271 130.291 30.8271C131.173 30.8271 131.757 30.3861 131.757 29.7507C131.757 27.9735 127.93 29.2835 127.93 26.8447C127.93 25.8196 128.812 25.0805 130.174 25.0805C131.38 25.0805 132.419 25.7552 132.562 26.884H131.602C131.512 26.2999 130.928 25.872 130.149 25.872C129.371 25.872 128.852 26.2356 128.852 26.7803C128.852 28.4801 132.68 27.1176 132.68 29.7257C132.68 30.8414 131.681 31.646 130.332 31.646C128.982 31.646 127.906 30.8807 127.776 29.6482L127.774 29.647ZM139.908 28.3633C139.908 30.218 138.468 31.646 136.638 31.646C134.809 31.646 133.382 30.2192 133.382 28.3633C133.382 26.5073 134.809 25.0805 136.638 25.0805C138.468 25.0805 139.908 26.5073 139.908 28.3633ZM134.316 28.3633C134.316 29.6995 135.328 30.7508 136.638 30.7508C137.948 30.7508 138.973 29.6995 138.973 28.3633C138.973 27.027 137.948 25.9757 136.638 25.9757C135.328 25.9757 134.316 27.0139 134.316 28.3633ZM144.29 25.158V26.0401C144.108 25.9757 143.888 25.9364 143.679 25.9364C142.707 25.9364 141.928 26.7016 141.928 27.7792V31.5161H140.981V25.2105H141.928V26.2225C142.292 25.5347 142.927 25.0805 143.706 25.0805C143.9 25.0805 144.12 25.1199 144.29 25.158ZM144.694 29.647H145.602C145.693 30.361 146.329 30.8271 147.211 30.8271C148.093 30.8271 148.677 30.3861 148.677 29.7507C148.677 27.9735 144.85 29.2835 144.85 26.8447C144.85 25.8196 145.732 25.0805 147.094 25.0805C148.301 25.0805 149.339 25.7552 149.482 26.884H148.522C148.432 26.2999 147.848 25.872 147.069 25.872C146.291 25.872 145.772 26.2356 145.772 26.7803C145.772 28.4801 149.6 27.1176 149.6 29.7257C149.6 30.8414 148.601 31.646 147.252 31.646C145.902 31.646 144.826 30.8807 144.696 29.6482L144.694 29.647Z" fill="#000033"/></svg>
