<svg width="160" height="160" viewBox="0 0 160 160" fill="none" xmlns="http://www.w3.org/2000/svg">
<path d="M21.9853 78.4343C21.9424 77.4558 21.6617 76.485 21.1412 75.6092L16.5577 67.8713C16.2087 67.2805 15.967 66.6497 15.8325 66L15.6414 66.323C14.5067 68.238 14.5067 70.5975 15.6414 72.5125L19.3086 78.7021C20.4432 80.6171 20.4432 82.9767 19.3086 84.8917L19.1175 85.2146C18.983 84.5668 18.7413 83.9342 18.3922 83.3433L15.0351 77.6762L12.8905 74.0571C12.5415 73.4662 12.2998 72.8355 12.1653 72.1858L11.9742 72.5087C10.8435 74.418 10.8396 76.7681 11.9625 78.6793L15.6414 84.8879C16.776 86.8029 16.776 89.1624 15.6414 91.0775L15.4503 91.4004C15.3158 90.7526 15.0741 90.12 14.7251 89.5291L10.1416 81.7912C9.52748 80.7539 9.24678 79.5855 9.29746 78.4286C4.38643 79.6843 1 82.3364 1 85.4084C1 89.6811 7.55451 93.1463 15.6394 93.1463C23.7244 93.1463 30.2789 89.683 30.2789 85.4084C30.2789 82.3364 26.8925 79.6824 21.9834 78.4343H21.9853ZM35.8079 91.6455C35.8625 90.5474 36.0282 89.797 36.3304 88.9383C37.8706 89.6355 39.8494 89.9831 41.3622 89.9831C43.9201 89.9831 45.3492 89.1795 45.3492 87.5989C45.3492 86.0183 44.3042 85.321 41.719 84.223L40.3173 83.634C37.7321 82.5359 35.9717 81.1149 35.9717 78.2747C35.9717 75.2197 38.1435 73.2629 42.5983 73.2629C44.3861 73.2629 46.0627 73.5042 47.6302 74.04C47.5483 75.1115 47.3553 75.9436 47.0804 76.7206C45.5948 76.1849 43.8363 75.9436 42.571 75.9436C40.1789 75.9436 39.0793 76.8555 39.0793 78.2747C39.0793 79.6938 40.1516 80.4727 42.0758 81.2763L43.5614 81.8919C47.0531 83.3395 48.5114 84.867 48.5114 87.4659C48.5114 90.5474 46.1193 92.6638 41.4442 92.6638C39.1885 92.6638 37.3461 92.3427 35.806 91.6455H35.8079ZM63.2795 78.8351V92.2344H60.5014L60.3356 90.6272C59.5655 91.807 58.3821 92.5555 56.4579 92.5555C52.8278 92.5555 50.4083 89.9831 50.4083 85.4806C50.4083 80.9781 52.9935 78.0846 58.0799 78.0846C60.0607 78.0846 61.6828 78.2994 63.2776 78.8351H63.2795ZM60.2557 89.1796V80.7653C59.624 80.6589 58.9358 80.6038 58.0838 80.6038C54.9489 80.6038 53.4906 82.4789 53.4906 85.4806C53.4906 88.2144 54.6175 90.1427 57.3138 90.1427C58.4972 90.1427 59.4583 89.7685 60.2557 89.1777V89.1796ZM78.7625 83.2313V92.2344H75.7367V83.7404C75.7367 81.624 75.0217 80.6057 71.9978 80.6057C71.2821 80.6057 70.4305 80.6855 69.6054 80.8204V92.2364H66.5801V78.837C68.5043 78.3811 70.6215 78.0866 72.0794 78.0866C77.1388 78.0866 78.7625 79.9883 78.7625 83.2313ZM87.1497 90.0363C88.0292 90.0363 88.8556 89.8749 89.5149 89.6336C89.4327 90.4372 89.3219 91.3491 89.1581 92.1262C88.333 92.4472 87.4541 92.5555 86.5998 92.5555C83.6582 92.5555 81.7884 91.2427 81.7884 87.9732V73.9051C82.7243 73.6106 83.8784 73.4757 84.8143 73.4757V78.5406H89.5985C89.5441 79.4526 89.4619 80.2827 89.3239 81.0598H84.8143V87.6255C84.8143 89.3676 85.6938 90.0363 87.1517 90.0363H87.1497ZM103.376 78.8351V92.2344H100.598L100.432 90.6272C99.6624 91.807 98.4791 92.5555 96.5549 92.5555C92.9248 92.5555 90.5052 89.9831 90.5052 85.4806C90.5052 80.9781 93.09 78.0846 98.1767 78.0846C100.157 78.0846 101.78 78.2994 103.374 78.8351H103.376ZM100.35 89.1796V80.7653C99.7188 80.6589 99.031 80.6038 98.1786 80.6038C95.044 80.6038 93.5855 82.4789 93.5855 85.4806C93.5855 88.2144 94.7124 90.1427 97.4086 90.1427C98.5919 90.1427 99.553 89.7685 100.35 89.1777V89.1796ZM118.858 83.2313V92.2344H115.832V83.7404C115.832 81.624 115.117 80.6057 112.093 80.6057C111.377 80.6057 110.526 80.6855 109.7 80.8204V92.2364H106.675V78.837C108.599 78.3811 110.717 78.0866 112.174 78.0866C117.234 78.0866 118.858 79.9883 118.858 83.2313ZM134.203 73.4757V92.2344H131.425L131.259 90.5189C130.489 91.7785 129.306 92.5555 127.327 92.5555C123.697 92.5555 121.277 89.9831 121.277 85.4806C121.277 80.9781 123.863 78.0846 128.949 78.0846C129.747 78.0846 130.489 78.1645 131.205 78.2994V73.8785C132.14 73.5574 133.213 73.4757 134.201 73.4757H134.203ZM131.207 89.1264V80.8736C130.409 80.7121 129.585 80.6057 128.787 80.6057C125.791 80.6057 124.36 82.4276 124.36 85.4825C124.36 88.2164 125.486 90.1447 128.183 90.1447C129.394 90.1447 130.382 89.7419 131.208 89.1264H131.207ZM149.412 86.5008H139.759C140.143 88.8851 141.574 90.0383 144.269 90.0383C145.918 90.0383 147.597 89.6906 149.11 89.02C149 89.797 148.834 90.8153 148.641 91.6987C147.267 92.3142 145.809 92.5555 144.187 92.5555C139.128 92.5555 136.679 89.8217 136.679 85.2393C136.679 81.246 138.576 78.0846 143.39 78.0846C147.708 78.0846 149.577 80.8451 149.577 84.2211C149.577 85.0512 149.523 85.7219 149.412 86.4989V86.5008ZM139.705 84.0349H146.524C146.524 81.8368 145.314 80.5506 143.224 80.5506C141.134 80.5506 139.95 81.757 139.705 84.0349ZM160 78.193C160 79.0783 159.891 80.1498 159.725 80.7121C159.01 80.6323 158.296 80.6057 157.442 80.6057C156.7 80.6057 155.957 80.6589 155.216 80.7672V92.2364H152.19V78.837C153.483 78.4076 155.654 78.0866 157.36 78.0866C158.296 78.0866 159.341 78.1131 160 78.193Z" fill="#9999AD"/>
</svg>
