<svg width="240" height="42" viewBox="0 0 240 42" fill="none" xmlns="http://www.w3.org/2000/svg"><path d="M31.6389 19.2379C31.5742 17.7241 31.151 16.2221 30.3662 14.8671L23.4558 2.89523C22.9297 1.9811 22.5652 1.00525 22.3624 0L22.0743 0.499685C20.3636 3.46252 20.3636 7.11316 22.0743 10.076L27.6032 19.6523C29.3139 22.6152 29.3139 26.2658 27.6032 29.2286L27.3151 29.7283C27.1123 28.726 26.7479 27.7472 26.2217 26.8331L21.1602 18.0651L17.9269 12.4657C17.4008 11.5515 17.0363 10.5757 16.8335 9.57044L16.5455 10.0701C14.8407 13.0241 14.8348 16.6601 16.5278 19.617L22.0743 29.2228C23.785 32.1856 23.785 35.8362 22.0743 38.7991L21.7863 39.2988C21.5835 38.2965 21.219 37.3177 20.6929 36.4035L13.7825 24.4317C12.8566 22.8268 12.4334 21.0191 12.5098 19.2291C5.10561 21.172 0 25.2752 0 30.0281C0 36.6387 9.88201 42 22.0714 42C34.2608 42 44.1428 36.6416 44.1428 30.0281C44.1428 25.2752 39.0372 21.169 31.636 19.2379H31.6389ZM52.4787 39.6779C52.561 37.979 52.8108 36.818 53.2664 35.4894C55.5885 36.5681 58.5719 37.106 60.8528 37.106C64.7092 37.106 66.8638 35.8627 66.8638 33.4172C66.8638 30.9717 65.2883 29.8929 61.3907 28.194L59.2774 27.2828C55.3798 25.5839 52.7256 23.3853 52.7256 18.991C52.7256 14.2645 56 11.237 62.7164 11.237C65.4117 11.237 67.9395 11.6103 70.3028 12.4392C70.1793 14.097 69.8883 15.3844 69.4739 16.5866C67.2341 15.7577 64.5828 15.3844 62.6752 15.3844C59.0687 15.3844 57.4109 16.7953 57.4109 18.991C57.4109 21.1866 59.0275 22.3918 61.9286 23.6351L64.1684 24.5874C69.4327 26.8272 71.6313 29.1904 71.6313 33.2114C71.6313 37.979 68.0248 41.2534 60.9763 41.2534C57.5755 41.2534 54.7978 40.7567 52.4758 39.6779H52.4787ZM93.8967 19.8581V40.5891H89.7082L89.4583 38.1025C88.2973 39.9278 86.5131 41.0859 83.612 41.0859C78.139 41.0859 74.4913 37.106 74.4913 30.1398C74.4913 23.1736 78.3888 18.697 86.0575 18.697C89.0439 18.697 91.4894 19.0292 93.8938 19.8581H93.8967ZM89.3378 35.8627V22.8444C88.3855 22.6798 87.3479 22.5946 86.0634 22.5946C81.337 22.5946 79.1384 25.4957 79.1384 30.1398C79.1384 34.3695 80.8373 37.3529 84.9024 37.3529C86.6866 37.3529 88.1356 36.7739 89.3378 35.8598V35.8627ZM117.24 26.6597V40.5891H112.678V27.4474C112.678 24.173 111.6 22.5975 107.041 22.5975C105.962 22.5975 104.678 22.721 103.434 22.9297V40.5921H98.873V19.861C101.774 19.1556 104.966 18.7 107.164 18.7C114.792 18.7 117.24 21.6422 117.24 26.6597ZM129.885 37.1883C131.211 37.1883 132.457 36.9385 133.451 36.5652C133.327 37.8085 133.16 39.2194 132.913 40.4216C131.669 40.9183 130.344 41.0859 129.056 41.0859C124.621 41.0859 121.802 39.0548 121.802 33.9962V12.2305C123.213 11.7749 124.953 11.5662 126.364 11.5662V19.4025H133.577C133.495 20.8134 133.371 22.0978 133.163 23.3H126.364V33.4583C126.364 36.1537 127.69 37.1883 129.888 37.1883H129.885ZM154.349 19.8581V40.5891H150.161L149.911 38.1025C148.75 39.9278 146.966 41.0859 144.065 41.0859C138.592 41.0859 134.944 37.106 134.944 30.1398C134.944 23.1736 138.841 18.697 146.51 18.697C149.496 18.697 151.942 19.0292 154.346 19.8581H154.349ZM149.787 35.8627V22.8444C148.835 22.6798 147.798 22.5946 146.513 22.5946C141.787 22.5946 139.588 25.4957 139.588 30.1398C139.588 34.3695 141.287 37.3529 145.352 37.3529C147.136 37.3529 148.585 36.7739 149.787 35.8598V35.8627ZM177.69 26.6597V40.5891H173.129V27.4474C173.129 24.173 172.05 22.5975 167.491 22.5975C166.412 22.5975 165.128 22.721 163.884 22.9297V40.5921H159.323V19.861C162.224 19.1556 165.416 18.7 167.614 18.7C175.242 18.7 177.69 21.6422 177.69 26.6597ZM200.826 11.5662V40.5891H196.637L196.387 37.9349C195.226 39.8837 193.442 41.0859 190.459 41.0859C184.986 41.0859 181.338 37.106 181.338 30.1398C181.338 23.1736 185.236 18.697 192.904 18.697C194.107 18.697 195.226 18.8205 196.305 19.0292V12.1894C197.716 11.6926 199.333 11.5662 200.823 11.5662H200.826ZM196.308 35.7804V23.012C195.106 22.7621 193.863 22.5975 192.66 22.5975C188.143 22.5975 185.985 25.4163 185.985 30.1428C185.985 34.3725 187.684 37.3559 191.749 37.3559C193.575 37.3559 195.065 36.7327 196.311 35.7804H196.308ZM223.756 31.7182H209.203C209.782 35.4071 211.939 37.1913 216.002 37.1913C218.488 37.1913 221.019 36.6534 223.3 35.6158C223.135 36.818 222.885 38.3935 222.594 39.7602C220.522 40.7126 218.324 41.0859 215.878 41.0859C208.251 41.0859 204.559 36.8562 204.559 29.7665C204.559 23.5881 207.419 18.697 214.676 18.697C221.187 18.697 224.005 22.9679 224.005 28.1911C224.005 29.4755 223.923 30.5131 223.756 31.7153V31.7182ZM209.121 27.903H219.402C219.402 24.5022 217.577 22.5123 214.426 22.5123C211.275 22.5123 209.491 24.3788 209.121 27.903ZM239.719 18.8646C239.719 20.2343 239.554 21.8921 239.305 22.7621C238.226 22.6387 237.15 22.5975 235.863 22.5975C234.743 22.5975 233.623 22.6798 232.506 22.8474V40.5921H227.944V19.861C229.893 19.1967 233.167 18.7 235.739 18.7C237.15 18.7 238.726 18.7411 239.719 18.8646Z" fill="#9999AD"/></svg>

