<svg width="13" height="21" viewBox="0 0 13 21" fill="none" xmlns="http://www.w3.org/2000/svg"><path d="M0.78125 10.5391C0.78125 10.2461 0.886719 9.97656 1.10938 9.76562L10.4023 0.671875C10.6016 0.472656 10.8594 0.367188 11.1641 0.367188C11.7734 0.367188 12.2422 0.824219 12.2422 1.43359C12.2422 1.72656 12.1133 1.99609 11.9258 2.19531L3.39453 10.5391L11.9258 18.8828C12.1133 19.082 12.2422 19.3398 12.2422 19.6445C12.2422 20.2539 11.7734 20.7109 11.1641 20.7109C10.8594 20.7109 10.6016 20.6055 10.4023 20.3945L1.10938 11.3125C0.886719 11.0898 0.78125 10.832 0.78125 10.5391Z" fill="currentColor"/></svg>
