<svg width="14" height="9" viewBox="0 0 14 9" fill="none" xmlns="http://www.w3.org/2000/svg"><path d="M6.78125 8.02344C6.57812 8.02344 6.39844 7.94531 6.25 7.79688L0.203125 1.60938C0.0703125 1.46875 -0.0078125 1.29688 -0.0078125 1.10156C-0.0078125 0.695312 0.296875 0.382812 0.703125 0.382812C0.90625 0.382812 1.08594 0.460938 1.21094 0.585938L6.78125 6.27344L12.3438 0.585938C12.4766 0.460938 12.6562 0.382812 12.8516 0.382812C13.2578 0.382812 13.5625 0.695312 13.5625 1.10156C13.5625 1.29688 13.4844 1.46875 13.3516 1.60156L7.30469 7.79688C7.17188 7.94531 6.97656 8.02344 6.78125 8.02344Z" fill="white"/></svg>
