<svg width="13" height="21" viewBox="0 0 13 21" fill="none" xmlns="http://www.w3.org/2000/svg"><path d="M12.2305 10.5391C12.2305 10.832 12.1133 11.0898 11.8906 11.3125L2.60938 20.3945C2.39844 20.6055 2.14062 20.7109 1.83594 20.7109C1.23828 20.7109 0.769531 20.2539 0.769531 19.6445C0.769531 19.3398 0.886719 19.082 1.07422 18.8828L9.60547 10.5391L1.07422 2.19531C0.886719 1.99609 0.769531 1.72656 0.769531 1.43359C0.769531 0.824219 1.23828 0.367188 1.83594 0.367188C2.14062 0.367188 2.39844 0.472656 2.60938 0.671875L11.8906 9.76562C12.1133 9.97656 12.2305 10.2461 12.2305 10.5391Z" fill="currentColor"/></svg>
