<svg width="25" height="25" viewBox="0 0 25 25" fill="none" xmlns="http://www.w3.org/2000/svg"><path d="M12.5 24.4922C5.97266 24.4922 0.546875 19.0664 0.546875 12.5391C0.546875 6 5.96094 0.585938 12.4883 0.585938C19.0273 0.585938 24.4531 6 24.4531 12.5391C24.4531 19.0664 19.0391 24.4922 12.5 24.4922ZM5.49219 4.94531C6.08984 5.36719 6.81641 5.71875 7.64844 5.98828C8.16406 4.55859 8.85547 3.39844 9.66406 2.57812C8.09375 3.03516 6.66406 3.85547 5.49219 4.94531ZM15.3477 2.58984C16.1445 3.41016 16.8359 4.57031 17.3516 5.98828C18.1836 5.71875 18.9102 5.37891 19.5078 4.95703C18.3242 3.86719 16.9062 3.04688 15.3477 2.58984ZM9.16016 6.375C9.95703 6.51562 10.8125 6.60938 11.7383 6.64453V2.84766C10.7305 3.29297 9.81641 4.58203 9.16016 6.375ZM13.2734 2.84766V6.64453C14.1875 6.60938 15.043 6.51562 15.8398 6.375C15.1836 4.58203 14.2695 3.29297 13.2734 2.84766ZM2.16406 11.7656H6.59375C6.65234 10.1953 6.86328 8.73047 7.20312 7.41797C6.11328 7.06641 5.17578 6.60938 4.44922 6.05859C3.16016 7.65234 2.32812 9.63281 2.16406 11.7656ZM18.4062 11.7656H22.8359C22.6719 9.63281 21.8398 7.65234 20.5391 6.07031C19.8242 6.60938 18.8867 7.06641 17.7969 7.41797C18.1367 8.73047 18.3477 10.1953 18.4062 11.7656ZM13.2734 11.7656H16.8359C16.7773 10.3594 16.5898 9.02344 16.2852 7.81641C15.3359 8.01562 14.3281 8.14453 13.2734 8.17969V11.7656ZM8.16406 11.7656H11.7383V8.17969C10.6719 8.14453 9.66406 8.01562 8.71484 7.81641C8.42188 9.02344 8.22266 10.3594 8.16406 11.7656ZM2.16406 13.3008C2.32812 15.457 3.17188 17.4492 4.48438 19.0547C5.19922 18.5156 6.125 18.0586 7.20312 17.707C6.86328 16.3828 6.65234 14.9062 6.59375 13.3008H2.16406ZM8.16406 13.3008C8.21094 14.7305 8.42188 16.0898 8.73828 17.3086C9.67578 17.1211 10.6836 16.9922 11.7383 16.957V13.3008H8.16406ZM13.2734 16.957C14.3164 16.9922 15.3359 17.1211 16.2617 17.3086C16.5781 16.0898 16.7891 14.7305 16.8359 13.3008H13.2734V16.957ZM17.7969 17.707C18.875 18.0586 19.8008 18.5156 20.5156 19.0547C21.8281 17.4492 22.6719 15.457 22.8359 13.3008H18.4062C18.3477 14.9062 18.1367 16.3828 17.7969 17.707ZM13.2734 18.4922V22.2422C14.2578 21.7969 15.1602 20.5078 15.8164 18.7617C15.0312 18.6094 14.1758 18.5273 13.2734 18.4922ZM9.18359 18.7617C9.83984 20.5078 10.7422 21.7969 11.7383 22.2422V18.4922C10.8242 18.5273 9.96875 18.6094 9.18359 18.7617ZM17.3398 19.1367C16.8242 20.5312 16.1445 21.6797 15.3594 22.4883C16.9062 22.0312 18.3008 21.2227 19.4727 20.1562C18.875 19.7461 18.1602 19.4062 17.3398 19.1367ZM5.52734 20.1562C6.69922 21.2227 8.10547 22.0312 9.65234 22.4883C8.85547 21.6797 8.17578 20.5312 7.66016 19.1367C6.83984 19.4062 6.125 19.7461 5.52734 20.1562Z" fill="white"/></svg>
