<svg width="32" height="32" viewBox="0 0 32 32" fill="none" xmlns="http://www.w3.org/2000/svg"><g clip-path="url(#clip0_784_2)"><mask id="mask0_784_2" style="mask-type:luminance" maskUnits="userSpaceOnUse" x="0" y="0" width="32" height="32"><path d="M32 16C32 7.16344 24.8366 0 16 0C7.16344 0 0 7.16344 0 16C0 24.8366 7.16344 32 16 32C24.8366 32 32 24.8366 32 16Z" fill="white"/></mask><g mask="url(#mask0_784_2)"><path d="M32 16C32 7.16344 24.8366 0 16 0C7.16344 0 0 7.16344 0 16C0 24.8366 7.16344 32 16 32C24.8366 32 32 24.8366 32 16Z" fill="white"/><path d="M8 15.5967C8 15.1215 8.39758 14.724 8.86303 14.724H15.137V8.45971C15.137 7.99426 15.5248 7.59668 16 7.59668C16.4752 7.59668 16.8727 7.99426 16.8727 8.45971V14.724H23.137C23.6024 14.724 24 15.1215 24 15.5967C24 16.0718 23.6024 16.4597 23.137 16.4597H16.8727V22.7336C16.8727 23.1991 16.4752 23.5967 16 23.5967C15.5248 23.5967 15.137 23.1991 15.137 22.7336V16.4597H8.86303C8.39758 16.4597 8 16.0718 8 15.5967Z" fill="#000033"/></g></g><defs><clipPath id="clip0_784_2"><rect width="32" height="32" fill="white"/></clipPath></defs></svg>
