<svg width="32" height="32" viewBox="0 0 32 32" fill="none" xmlns="http://www.w3.org/2000/svg">
<g clip-path="url(#clip0_577_159)">
<rect width="32" height="32" rx="16" fill="white"/>
<path d="M8 15.5967C8 15.1215 8.39758 14.724 8.86303 14.724H15.137V8.45971C15.137 7.99426 15.5248 7.59668 16 7.59668C16.4752 7.59668 16.8727 7.99426 16.8727 8.45971V14.724H23.137C23.6024 14.724 24 15.1215 24 15.5967C24 16.0718 23.6024 16.4597 23.137 16.4597H16.8727V22.7336C16.8727 23.1991 16.4752 23.5967 16 23.5967C15.5248 23.5967 15.137 23.1991 15.137 22.7336V16.4597H8.86303C8.39758 16.4597 8 16.0718 8 15.5967Z" fill="#000033"/>
</g>
<defs>
<clipPath id="clip0_577_159">
  <rect width="32" height="32" rx="16" fill="white"/>
</clipPath>
</defs>
</svg>
