<?xml version="1.0" standalone="no"?>
<!DOCTYPE svg PUBLIC "-//W3C//DTD SVG 20010904//EN"
 "http://www.w3.org/TR/2001/REC-SVG-20010904/DTD/svg10.dtd">
<svg version="1.0" xmlns="http://www.w3.org/2000/svg"
 width="600.000000pt" height="600.000000pt" viewBox="0 0 600.000000 600.000000"
 preserveAspectRatio="xMidYMid meet">
<metadata>
Created by potrace 1.14, written by Peter Selinger 2001-2017
</metadata>
<g transform="translate(0.000000,600.000000) scale(0.100000,-0.100000)"
fill="#000000" stroke="none">
<path d="M0 3000 l0 -3000 3000 0 3000 0 0 3000 0 3000 -3000 0 -3000 0 0
-3000z m2630 1033 l0 -716 41 64 c116 178 345 330 584 385 63 15 118 19 255
18 210 0 276 -15 445 -98 335 -165 565 -500 632 -920 11 -75 14 -146 10 -295
-4 -177 -7 -207 -34 -311 -102 -388 -322 -670 -638 -816 -146 -68 -206 -78
-430 -78 -189 0 -205 1 -290 27 -230 70 -431 207 -538 367 l-37 55 0 -208 0
-207 -620 0 -620 0 0 65 0 64 138 3 137 3 3 1593 2 1592 -140 0 -140 0 0 65 0
65 620 0 620 0 0 -717z"/>
<path d="M3067 3519 c-172 -40 -363 -264 -422 -494 -22 -86 -22 -919 0 -1012
57 -242 265 -468 451 -489 118 -14 262 41 343 133 85 95 138 226 177 438 25
136 31 553 10 711 -55 416 -206 664 -434 713 -60 12 -72 13 -125 0z"/>
</g>
</svg>
